<svg width="32" height="32" viewBox="0 0 32 32" fill="none" xmlns="http://www.w3.org/2000/svg">
<path d="M24.4377 30.0001C23.2177 30.0001 21.504 29.5588 18.9377 28.1251C15.8171 26.3751 13.4033 24.7594 10.2996 21.6638C7.30708 18.6732 5.85084 16.7369 3.81271 13.0282C1.51021 8.84069 1.90271 6.64569 2.34146 5.70757C2.86396 4.58632 3.63521 3.91569 4.63209 3.25007C5.1983 2.87909 5.7975 2.56108 6.42209 2.30007C6.48459 2.27319 6.54271 2.24757 6.59459 2.22444C6.90396 2.08507 7.37271 1.87444 7.96646 2.09944C8.36271 2.24819 8.71646 2.55257 9.27021 3.09944C10.4058 4.21944 11.9577 6.71382 12.5302 7.93882C12.9146 8.76444 13.169 9.30944 13.1696 9.92069C13.1696 10.6363 12.8096 11.1882 12.3727 11.7838C12.2908 11.8957 12.2096 12.0026 12.1308 12.1063C11.6552 12.7313 11.5508 12.9119 11.6196 13.2344C11.759 13.8826 12.7983 15.8119 14.5065 17.5163C16.2146 19.2207 18.0883 20.1944 18.739 20.3332C19.0752 20.4051 19.2596 20.2963 19.9046 19.8038C19.9971 19.7332 20.0921 19.6601 20.1915 19.5869C20.8577 19.0913 21.384 18.7407 22.0827 18.7407H22.0865C22.6946 18.7407 23.2152 19.0044 24.0777 19.4394C25.2027 20.0069 27.7721 21.5388 28.899 22.6757C29.4471 23.2282 29.7527 23.5807 29.9021 23.9763C30.1271 24.5719 29.9152 25.0388 29.7771 25.3513C29.754 25.4032 29.7283 25.4601 29.7015 25.5232C29.4384 26.1467 29.1185 26.7446 28.7458 27.3094C28.0815 28.3032 27.4083 29.0726 26.2846 29.5957C25.7075 29.8686 25.076 30.0069 24.4377 30.0001Z" fill="#6FA4FF"/>
</svg>
