<svg width="18" height="20" viewBox="0 0 18 20" fill="none" xmlns="http://www.w3.org/2000/svg">
<path d="M0.357473 7.40033C0.262667 7.40033 0.171744 7.43799 0.104706 7.50503C0.0376673 7.57207 5.55995e-06 7.66299 5.55995e-06 7.7578C-0.00251007 10.4668 0.848693 13.1078 2.43269 15.3054C4.01669 17.5031 6.25294 19.1457 8.82374 20C14.2208 18.5433 17.8709 13.3046 17.8734 7.7578V2.50231C17.8734 2.42262 17.8468 2.34522 17.7977 2.28239C17.7487 2.21957 17.6801 2.17493 17.6028 2.15557L9.02356 0.010759C8.96654 -0.00358633 8.90686 -0.00358633 8.84984 0.010759L0.270609 2.15557C0.193307 2.17493 0.124693 2.21957 0.0756655 2.28239C0.0266376 2.34522 7.65486e-06 2.42262 5.55995e-06 2.50231V5.97046C5.55995e-06 6.06527 0.0376673 6.15619 0.104706 6.22323C0.171744 6.29027 0.262667 6.32793 0.357473 6.32793C0.45228 6.32793 0.543203 6.29027 0.610241 6.22323C0.677279 6.15619 0.714941 6.06527 0.714941 5.97046V2.78113L8.9367 0.725694L17.1585 2.78113V7.75709C17.1609 10.2957 16.3696 12.7715 14.8954 14.8381C13.4212 16.9048 11.3378 18.4588 8.9367 19.2829C6.53573 18.4589 4.45241 16.9049 2.97821 14.8384C1.50401 12.7719 0.712684 10.2962 0.714941 7.7578C0.714941 7.66299 0.677279 7.57207 0.610241 7.50503C0.543203 7.43799 0.45228 7.40033 0.357473 7.40033Z" fill="#2A2A2A"/>
<path d="M13.3503 14.51C13.2923 14.584 13.2658 14.6778 13.2764 14.7711C13.2871 14.8645 13.3341 14.9499 13.4073 15.0089C13.4804 15.0679 13.5739 15.0957 13.6674 15.0863C13.7609 15.0768 13.8469 15.031 13.9068 14.9586C15.5468 12.9165 16.4415 10.3762 16.4434 7.7571V3.61762C16.4434 3.53793 16.4168 3.46053 16.3678 3.3977C16.3188 3.33488 16.2501 3.29024 16.1728 3.27088L9.02348 1.48354C8.96646 1.46919 8.90677 1.46919 8.84975 1.48354L1.7004 3.27088C1.6231 3.29024 1.55448 3.33488 1.50545 3.3977C1.45643 3.46053 1.4298 3.53793 1.42979 3.61762V7.7571C1.41133 10.1053 2.1241 12.401 3.46923 14.3258C4.81437 16.2507 6.72518 17.7091 8.93662 18.499C10.3089 18.0261 11.5699 17.2775 12.6421 16.2991C12.6771 16.2679 12.7057 16.23 12.7261 16.1877C12.7464 16.1455 12.7583 16.0996 12.761 16.0527C12.7636 16.0058 12.757 15.9589 12.7415 15.9146C12.726 15.8703 12.702 15.8294 12.6707 15.7944C12.6395 15.7594 12.6016 15.7309 12.5593 15.7105C12.517 15.6901 12.4711 15.6782 12.4243 15.6756C12.3774 15.6729 12.3305 15.6795 12.2862 15.695C12.2418 15.7105 12.201 15.7345 12.166 15.7658C11.2164 16.6163 10.123 17.291 8.93697 17.7583C6.9263 16.9736 5.2008 15.5977 3.98818 13.8122C2.77555 12.0267 2.1328 9.91544 2.14473 7.7571V3.89644L8.93662 2.19847L15.7285 3.89644V7.75781C15.7268 10.2136 14.8879 12.5952 13.3503 14.51Z" fill="#2A2A2A"/>
<path d="M10.6499 7.73061L8.28134 10.0992L7.22324 9.04144C7.15582 8.97633 7.06552 8.9403 6.97179 8.94111C6.87807 8.94192 6.78841 8.97952 6.72213 9.0458C6.65585 9.11207 6.61826 9.20173 6.61745 9.29546C6.61663 9.38919 6.65266 9.47948 6.71778 9.5469L8.02825 10.8577C8.06145 10.891 8.10088 10.9173 8.14427 10.9353C8.18767 10.9533 8.23419 10.9626 8.28116 10.9626C8.32814 10.9626 8.37466 10.9533 8.41805 10.9353C8.46145 10.9173 8.50087 10.891 8.53407 10.8577L11.1554 8.23643C11.1886 8.20324 11.2149 8.16383 11.2329 8.12046C11.2509 8.07709 11.2602 8.0306 11.2602 7.98364C11.2602 7.93669 11.251 7.89019 11.233 7.84681C11.2151 7.80342 11.1887 7.764 11.1556 7.73079C11.1224 7.69757 11.083 7.67122 11.0396 7.65324C10.9962 7.63526 10.9497 7.62599 10.9028 7.62598C10.8558 7.62596 10.8093 7.63519 10.7659 7.65314C10.7226 7.6711 10.6831 7.69742 10.6499 7.73061Z" fill="#224B86"/>
<path d="M11.9698 6.76656C12.0368 6.69953 12.0745 6.60862 12.0745 6.51383C12.0745 6.41905 12.0368 6.32814 11.9698 6.2611C7.77172 2.40295 2.04473 8.14389 5.90324 12.3284C9.12152 15.487 14.4195 12.2047 13.0004 7.91868C12.9702 7.8288 12.9055 7.7546 12.8206 7.7124C12.7357 7.6702 12.6375 7.66346 12.5477 7.69366C12.4578 7.72385 12.3836 7.78851 12.3414 7.87342C12.2992 7.95832 12.2924 8.05651 12.3226 8.14639C12.5818 8.91062 12.5747 9.74004 12.3027 10.4998C12.0307 11.2595 11.5096 11.9049 10.8243 12.3309C10.139 12.757 9.32965 12.9387 8.52796 12.8464C7.72628 12.7542 6.97937 12.3935 6.4087 11.8229C3.1872 8.34514 7.98012 3.54721 11.4644 6.76656C11.5314 6.83358 11.6223 6.87122 11.7171 6.87122C11.8119 6.87122 11.9028 6.83358 11.9698 6.76656Z" fill="#3D8BFF"/>
</svg>
