<svg width="81" height="81" viewBox="0 0 81 81" fill="none" xmlns="http://www.w3.org/2000/svg">
<rect width="81" height="81" rx="40.5" fill="#3D8BFF"/>
<path fill-rule="evenodd" clip-rule="evenodd" d="M13.2812 40.5C13.2812 25.9211 25.4726 14.0938 40.5 14.0938C55.5274 14.0938 67.7188 25.9211 67.7188 40.5C67.7188 55.0789 55.5274 66.9062 40.5 66.9062C25.4726 66.9062 13.2812 55.0789 13.2812 40.5ZM40.5 18.1562C27.7853 18.1562 17.4688 28.1648 17.4688 40.5C17.4688 52.8352 27.7853 62.8438 40.5 62.8438C53.2147 62.8438 63.5312 52.8352 63.5312 40.5C63.5312 28.1648 53.2147 18.1562 40.5 18.1562Z" fill="#F3F5F7"/>
<path fill-rule="evenodd" clip-rule="evenodd" d="M56.534 30.8456C57.4046 31.5838 57.4936 32.867 56.7326 33.7117L42.0934 49.9617C41.7118 50.3853 41.1662 50.6364 40.5866 50.6552C40.0071 50.6739 39.4454 50.4586 39.0356 50.0606L32.7609 43.9668C31.9437 43.1732 31.9444 41.8871 32.7625 41.0942C33.5805 40.3014 34.9062 40.3021 35.7235 41.0957L40.4148 45.6517L53.5796 31.0383C54.3406 30.1936 55.6633 30.1073 56.534 30.8456Z" fill="#F3F5F7"/>
<path fill-rule="evenodd" clip-rule="evenodd" d="M24.364 41.0942C25.1821 40.3014 26.5078 40.302 27.325 41.0957L33.5997 47.1894C34.417 47.9831 34.4163 49.2692 33.5982 50.0621C32.7801 50.8549 31.4544 50.8542 30.6372 50.0606L24.3625 43.9668C23.5452 43.1731 23.5459 41.887 24.364 41.0942Z" fill="#F3F5F7"/>
<path fill-rule="evenodd" clip-rule="evenodd" d="M48.3827 30.8454C49.2535 31.5835 49.3426 32.8667 48.5818 33.7115L41.836 41.2017C41.0752 42.0465 39.7525 42.133 38.8817 41.3949C38.0109 40.6568 37.9218 39.3736 38.6826 38.5288L45.4284 31.0385C46.1892 30.1937 47.5119 30.1073 48.3827 30.8454Z" fill="#F3F5F7"/>
</svg>
