<svg width="81" height="81" viewBox="0 0 81 81" fill="none" xmlns="http://www.w3.org/2000/svg">
<rect width="81" height="81" rx="40.5" fill="#3D8BFF"/>
<path fill-rule="evenodd" clip-rule="evenodd" d="M14.0938 40.5C14.0938 25.9211 25.9211 14.0938 40.5 14.0938C55.0789 14.0938 66.9062 25.9211 66.9062 40.5C66.9062 55.0789 55.0789 66.9062 40.5 66.9062C25.9211 66.9062 14.0938 55.0789 14.0938 40.5ZM40.5 18.1562C28.1648 18.1562 18.1562 28.1648 18.1562 40.5C18.1562 52.8352 28.1648 62.8438 40.5 62.8438C52.8352 62.8438 62.8438 52.8352 62.8438 40.5C62.8438 28.1648 52.8352 18.1562 40.5 18.1562Z" fill="#F3F5F7"/>
<path fill-rule="evenodd" clip-rule="evenodd" d="M40.5 22.2188C41.6218 22.2188 42.5312 23.1282 42.5312 24.25V40.5H52.6875C53.8093 40.5 54.7188 41.4094 54.7188 42.5312C54.7188 43.6531 53.8093 44.5625 52.6875 44.5625H40.5C39.3782 44.5625 38.4688 43.6531 38.4688 42.5312V24.25C38.4688 23.1282 39.3782 22.2188 40.5 22.2188Z" fill="#F3F5F7"/>
</svg>
