<svg width="26" height="20" viewBox="0 0 26 20" fill="none" xmlns="http://www.w3.org/2000/svg">
<path fill-rule="evenodd" clip-rule="evenodd" d="M0 10C0 4.47901 4.47901 0 10 0C15.521 0 20 4.47901 20 10C20 15.521 15.521 20 10 20C4.47901 20 0 15.521 0 10ZM10 1.53846C5.32868 1.53846 1.53846 5.32868 1.53846 10C1.53846 14.6713 5.32868 18.4615 10 18.4615C14.6713 18.4615 18.4615 14.6713 18.4615 10C18.4615 5.32868 14.6713 1.53846 10 1.53846Z" fill="#224B86"/>
<path fill-rule="evenodd" clip-rule="evenodd" d="M25.1437 1.35505C25.7485 1.83964 25.8102 2.68195 25.2817 3.23641L15.113 13.9031C14.8479 14.1811 14.469 14.3459 14.0664 14.3582C13.6638 14.3705 13.2737 14.2292 12.989 13.968L8.63051 9.96796C8.06285 9.44699 8.06333 8.60277 8.63158 8.08234C9.19984 7.56192 10.1207 7.56236 10.6883 8.08332L13.947 11.0739L23.0915 1.48156C23.6201 0.927097 24.5389 0.870456 25.1437 1.35505Z" fill="#3D8BFF"/>
<path fill-rule="evenodd" clip-rule="evenodd" d="M3.43807 7.59954C3.91926 7.03908 4.69903 7.03955 5.17973 7.6006L8.87049 11.9083C9.35119 12.4693 9.35078 13.3785 8.86959 13.939C8.38839 14.4994 7.60862 14.4989 7.12793 13.9379L3.43716 9.63021C2.95646 9.06916 2.95687 8.16 3.43807 7.59954Z" fill="#3D8BFF"/>
<path fill-rule="evenodd" clip-rule="evenodd" d="M19.0168 1.33738C19.5886 1.79609 19.6472 2.59354 19.1476 3.11853L14.7179 7.77334C14.2183 8.29834 13.3497 8.35208 12.7779 7.89337C12.2061 7.43467 12.1476 6.63722 12.6472 6.11222L17.0769 1.45741C17.5765 0.932416 18.445 0.878676 19.0168 1.33738Z" fill="#3D8BFF"/>
</svg>
