<svg width="102" height="102" viewBox="0 0 102 102" fill="none" xmlns="http://www.w3.org/2000/svg">
<circle cx="51" cy="51" r="51" fill="url(#paint0_linear_65_609)"/>
<path d="M40.6835 41.677C37.2852 44.5138 36.0399 49.6875 38.9742 53.8381C41.72 57.7221 45.1789 61.1196 49.1313 63.816C53.3562 66.6983 58.6221 65.4744 61.5093 62.1357L61.5414 62.1503C65.2292 63.8287 69.1462 64.9791 73.1667 65.5653V73.7777L73.1632 73.7777L73.1542 73.7777C47.9015 73.8129 28.8063 54.8346 28.8334 30.2334V30.2222H37.1913L37.1919 30.2259C37.7887 34.1754 38.9591 38.0203 40.6676 41.6434L40.6835 41.677ZM73.1632 79.9999H76.3333C78.0822 79.9999 79.5 78.6071 79.5 76.8888V62.8818C79.5 61.34 78.3506 60.0307 76.7982 59.8044L74.0933 59.41C70.6722 58.9112 67.3417 57.9327 64.2034 56.5044L61.8194 55.4194C60.4379 54.7907 58.7964 55.2169 57.9115 56.4341L56.8322 57.9187C55.8863 59.2197 54.0805 59.6171 52.7437 58.7052C49.4114 56.4318 46.4909 53.5631 44.1759 50.2886C43.2474 48.9752 43.6519 47.2007 44.9765 46.2714L46.4868 45.2118C47.726 44.3423 48.1598 42.7295 47.5197 41.3721L46.4142 39.0277C44.9603 35.9448 43.9644 32.673 43.4566 29.3122L43.055 26.6543C42.8245 25.1292 41.4919 24 39.9226 24H25.6667C23.9178 24 22.5 25.3929 22.5 27.1111V30.2267C22.4693 58.2467 44.3824 80.0401 73.1632 79.9999Z" fill="white"/>
<defs>
<linearGradient id="paint0_linear_65_609" x1="51" y1="0" x2="51" y2="102" gradientUnits="userSpaceOnUse">
<stop stop-color="#224B86"/>
<stop offset="1" stop-color="#233B5D"/>
</linearGradient>
</defs>
</svg>
