<svg width="102" height="102" viewBox="0 0 102 102" fill="none" xmlns="http://www.w3.org/2000/svg">
<circle cx="51" cy="51" r="51" fill="url(#paint0_linear_65_623)"/>
<path d="M51.4998 74.3333C38.6132 74.3333 28.1665 63.8866 28.1665 51C28.1665 38.1133 38.6132 27.6666 51.4998 27.6666C64.3865 27.6666 74.8332 38.1133 74.8332 51C74.819 63.8807 64.3806 74.3191 51.4998 74.3333ZM51.4998 32.3333C41.1905 32.3333 32.8332 40.6906 32.8332 51C32.8332 61.3093 41.1905 69.6666 51.4998 69.6666C61.8092 69.6666 70.1665 61.3093 70.1665 51C70.1549 40.6954 61.8044 32.3449 51.4998 32.3333ZM63.1665 53.3333H49.1665V39.3333H53.8332V48.6666H63.1665V53.3333Z" fill="white"/>
<defs>
<linearGradient id="paint0_linear_65_623" x1="51" y1="0" x2="51" y2="102" gradientUnits="userSpaceOnUse">
<stop stop-color="#224B86"/>
<stop offset="1" stop-color="#233B5D"/>
</linearGradient>
</defs>
</svg>
