<svg width="102" height="102" viewBox="0 0 102 102" fill="none" xmlns="http://www.w3.org/2000/svg">
<circle cx="51" cy="51" r="51" fill="url(#paint0_linear_65_647)"/>
<g clip-path="url(#clip0_65_647)">
<path d="M55.7468 74.3333H47.2535C46.1571 74.3333 45.2084 73.5703 44.9738 72.4993L44.0241 68.1033C42.7573 67.5482 41.556 66.8541 40.4425 66.0336L36.1561 67.3986C35.1108 67.732 33.9744 67.292 33.4261 66.3416L29.1701 58.9893C28.6278 58.0385 28.8147 56.8391 29.6205 56.0983L32.9455 53.065C32.7943 51.6909 32.7943 50.3044 32.9455 48.9303L29.6205 45.904C28.8135 45.1628 28.6266 43.962 29.1701 43.0106L33.4168 35.6536C33.9651 34.7033 35.1015 34.2633 36.1468 34.5966L40.4331 35.9616C41.0026 35.5397 41.5954 35.1501 42.2088 34.795C42.7976 34.4629 43.4036 34.1623 44.0241 33.8943L44.9761 29.503C45.2096 28.4319 46.1572 27.6678 47.2535 27.6666H55.7468C56.843 27.6678 57.7906 28.4319 58.0241 29.503L58.9855 33.8966C59.6406 34.1848 60.2787 34.5105 60.8965 34.872C61.4726 35.2052 62.0296 35.5705 62.5648 35.9663L66.8535 34.6013C67.8981 34.2692 69.0331 34.709 69.5811 35.6583L73.8278 43.0153C74.3701 43.9661 74.1833 45.1655 73.3775 45.9063L70.0525 48.9396C70.2037 50.3137 70.2037 51.7002 70.0525 53.0743L73.3775 56.1076C74.1833 56.8484 74.3701 58.0478 73.8278 58.9986L69.5811 66.3556C69.0331 67.3049 67.8981 67.7447 66.8535 67.4126L62.5648 66.0476C62.0221 66.4473 61.4582 66.8173 60.8755 67.156C60.2637 67.5104 59.6328 67.8306 58.9855 68.115L58.0241 72.4993C57.7897 73.5694 56.8423 74.3324 55.7468 74.3333ZM41.2801 60.8676L43.1935 62.2676C43.6248 62.5853 44.0743 62.8775 44.5398 63.1426C44.9778 63.3963 45.4287 63.6268 45.8908 63.8333L48.0678 64.7876L49.1341 69.6666H53.8708L54.9371 64.7853L57.1141 63.831C58.0645 63.4119 58.9666 62.8908 59.8045 62.277L61.7201 60.877L66.4825 62.3936L68.8508 58.2916L65.1571 54.9246L65.4185 52.5633C65.5333 51.5305 65.5333 50.4881 65.4185 49.4553L65.1571 47.094L68.8531 43.72L66.4825 39.6156L61.7201 41.1323L59.8045 39.7323C58.9663 39.1156 58.0644 38.5907 57.1141 38.1666L54.9371 37.2123L53.8708 32.3333H49.1341L48.0631 37.2146L45.8908 38.1666C45.4283 38.3697 44.9773 38.598 44.5398 38.8503C44.0772 39.1147 43.63 39.4053 43.2005 39.7206L41.2848 41.1206L36.5248 39.604L34.1518 43.72L37.8455 47.0823L37.5841 49.446C37.4693 50.4788 37.4693 51.5211 37.5841 52.554L37.8455 54.9153L34.1518 58.2823L36.5201 62.3843L41.2801 60.8676ZM51.4908 60.3333C46.3361 60.3333 42.1575 56.1546 42.1575 51C42.1575 45.8453 46.3361 41.6666 51.4908 41.6666C56.6455 41.6666 60.8241 45.8453 60.8241 51C60.8177 56.152 56.6428 60.3269 51.4908 60.3333ZM51.4908 46.3333C48.9414 46.3359 46.8659 48.3839 46.8293 50.9331C46.7928 53.4822 48.8088 55.5889 51.3571 55.6646C53.9054 55.7402 56.0427 53.7568 56.1575 51.21V52.1433V51C56.1575 48.4226 54.0681 46.3333 51.4908 46.3333Z" fill="white"/>
</g>
<defs>
<linearGradient id="paint0_linear_65_647" x1="51" y1="0" x2="51" y2="102" gradientUnits="userSpaceOnUse">
<stop stop-color="#224B86"/>
<stop offset="1" stop-color="#233B5D"/>
</linearGradient>
<clipPath id="clip0_65_647">
<rect width="56" height="56" fill="white" transform="translate(23.5 23)"/>
</clipPath>
</defs>
</svg>
