<svg width="109" height="102" viewBox="0 0 109 102" fill="none" xmlns="http://www.w3.org/2000/svg">
<circle cx="54.5" cy="51" r="51" fill="url(#paint0_linear_65_664)"/>
<g clip-path="url(#clip0_65_664)">
<path d="M68.2498 73.4167H40.7498C38.2185 73.4167 36.1665 71.3647 36.1665 68.8334V32.1667C36.1665 29.6354 38.2185 27.5834 40.7498 27.5834H56.7915C56.8165 27.5845 56.8412 27.5891 56.8648 27.5971C56.8872 27.604 56.9103 27.6086 56.9336 27.6109C57.1357 27.6238 57.3352 27.6631 57.5271 27.7277L57.5913 27.7484C57.6432 27.766 57.6938 27.7874 57.7425 27.8125C57.9922 27.9235 58.2197 28.0788 58.414 28.2709L72.164 42.0209C72.3561 42.2152 72.5114 42.4427 72.6223 42.6923C72.6453 42.7427 72.6613 42.7955 72.6796 42.8482L72.7003 42.9077C72.7642 43.0989 72.802 43.2977 72.8125 43.499C72.8161 43.52 72.8215 43.5407 72.8286 43.5609C72.8326 43.582 72.8342 43.6035 72.8335 43.625V68.8334C72.8335 71.3647 70.7811 73.4167 68.2498 73.4167ZM40.7498 32.1667V68.8334H68.2498V45.9167H56.7915C55.5259 45.9167 54.4998 44.8907 54.4998 43.625V32.1667H40.7498ZM59.0832 35.4071V41.3334H65.0094L59.0832 35.4071Z" fill="white"/>
</g>
<defs>
<linearGradient id="paint0_linear_65_664" x1="54.5" y1="0" x2="54.5" y2="102" gradientUnits="userSpaceOnUse">
<stop stop-color="#224B86"/>
<stop offset="1" stop-color="#233B5D"/>
</linearGradient>
<clipPath id="clip0_65_664">
<rect width="56" height="56" fill="white" transform="translate(27 23)"/>
</clipPath>
</defs>
</svg>
