<svg width="36" height="40" viewBox="0 0 36 40" fill="none" xmlns="http://www.w3.org/2000/svg">
<path fill-rule="evenodd" clip-rule="evenodd" d="M36 18.392C36 6.46909 31.8462 1 18 1C4.15385 1 0 6.46909 0 18.392C0 26.8771 2.1038 32.0936 8.30769 34.3964V38.4107C8.30769 39.8883 10.1413 40.5632 11.0911 39.4352L14.2925 35.6334C15.4431 35.7341 16.6773 35.784 18 35.784C31.8462 35.784 36 30.3149 36 18.392ZM15.0573 32.891C15.9752 32.9647 16.955 33.0013 18 33.0013C29.716 33.0013 33.2308 28.4072 33.2308 18.392C33.2308 8.37676 29.716 3.78272 18 3.78272C6.28402 3.78272 2.76923 8.37676 2.76923 18.392C2.76923 25.4711 4.52527 29.8417 9.69231 31.7959V37.743C9.69231 38.2615 10.3357 38.4983 10.669 38.1025L15.0573 32.891Z" fill="#BFC8D0"/>
<path d="M18 31.7801C16.9708 31.7801 16.0059 31.7441 15.1019 31.6715L10.78 36.8048C10.4518 37.1947 9.81818 36.9614 9.81818 36.4507V30.5928C4.72943 28.6679 3 24.3629 3 17.39C3 7.5251 6.46154 3 18 3C29.5385 3 33 7.5251 33 17.39C33 27.255 29.5385 31.7801 18 31.7801Z" fill="#9179EE"/>
<path fill-rule="evenodd" clip-rule="evenodd" d="M36 17.392C36 5.46909 31.8462 0 18 0C4.15385 0 0 5.46909 0 17.392C0 25.8771 2.1038 31.0936 8.30769 33.3964V37.4107C8.30769 38.8883 10.1413 39.5632 11.0911 38.4352L14.2925 34.6334C15.4431 34.7341 16.6773 34.784 18 34.784C31.8462 34.784 36 29.3149 36 17.392ZM15.0573 31.891C15.9752 31.9647 16.955 32.0013 18 32.0013C29.716 32.0013 33.2308 27.4072 33.2308 17.392C33.2308 7.37676 29.716 2.78272 18 2.78272C6.28402 2.78272 2.76923 7.37676 2.76923 17.392C2.76923 24.4711 4.52527 28.8417 9.69231 30.7959V36.743C9.69231 37.2615 10.3357 37.4983 10.669 37.1025L15.0573 31.891Z" fill="#F3F5F7"/>
<path d="M9.74512 8.53223C9.95104 8.52887 10.0889 8.57974 10.165 8.64746C10.6558 9.08391 11.4153 9.85299 11.9297 10.5137C12.1933 10.8523 12.5113 11.2821 12.7764 11.6553C12.9089 11.8419 13.0263 12.0125 13.1162 12.1484C13.1611 12.2164 13.1981 12.2732 13.2256 12.3184C13.2393 12.3409 13.2502 12.3593 13.2578 12.373C13.2658 12.3874 13.2682 12.3929 13.2676 12.3916C13.2685 12.394 13.2733 12.4057 13.2793 12.4277C13.2863 12.4537 13.2935 12.4887 13.2998 12.5303C13.3125 12.6143 13.3182 12.7169 13.3096 12.8242C13.292 13.043 13.2198 13.24 13.0713 13.3779C12.6806 13.7408 12.1556 14.073 11.9482 14.1895L11.9072 14.2129L11.8711 14.2422C11.5464 14.5147 11.0594 15.2645 11.4883 16.1943C11.8774 17.0379 12.7381 18.7462 14.2451 20.0303C15.7266 21.2924 17.3067 21.9685 18.335 22.1885L18.3867 22.2002H18.4395C18.4425 22.2004 18.4526 22.2004 18.4717 22.2031C18.4994 22.2071 18.5324 22.2134 18.5791 22.2217C18.8898 22.2768 19.6189 22.4227 20.2285 21.8066C20.6422 21.3885 21.0193 20.9516 21.1807 20.7568C21.3123 20.6251 21.7504 20.3585 22.3027 20.5479C23.2224 20.8632 24.3061 21.5696 24.8223 21.9219C25.225 22.1967 26.1332 22.8557 26.541 23.1543V23.1553C26.5953 23.1951 26.6957 23.2993 26.751 23.4443C26.7998 23.5728 26.819 23.7439 26.7168 23.9658C26.5513 24.325 26.0674 24.9768 25.4248 25.542C24.7723 26.1159 24.0685 26.5 23.4795 26.5C23.4737 26.4995 23.4485 26.4968 23.3965 26.4883C23.3362 26.4784 23.2554 26.4625 23.1543 26.4395C22.9524 26.3934 22.681 26.3222 22.3516 26.2217C21.6933 26.0208 20.8118 25.7083 19.7949 25.2646C17.7595 24.3766 15.1955 22.9697 12.7939 20.8965C11.2778 19.5876 9.8519 17.7824 8.74414 16.0977C7.62951 14.4024 6.87462 12.8864 6.66504 12.1699L6.6543 12.1328L6.63867 12.0986L6.5918 11.9805C6.54498 11.8418 6.50121 11.6452 6.5 11.4297C6.49847 11.1484 6.56878 10.8665 6.7627 10.6309C7.31339 9.96156 7.90474 9.29483 9.2002 8.65918C9.33685 8.59213 9.54233 8.53555 9.74512 8.53223ZM18.0645 11.9189C20.162 11.9189 21.822 13.5366 21.8223 15.4834C21.8223 15.5596 21.751 15.6609 21.6133 15.6611C21.4753 15.6611 21.4033 15.5597 21.4033 15.4834C21.4031 13.6893 19.886 12.2744 18.0645 12.2744C17.9265 12.2744 17.8545 12.173 17.8545 12.0967C17.8546 12.0204 17.9266 11.919 18.0645 11.9189ZM18.0645 9.20996C21.7298 9.20996 24.6609 12.0401 24.6611 15.4834C24.6611 15.5597 24.5891 15.6611 24.4512 15.6611C24.3135 15.6609 24.2422 15.5596 24.2422 15.4834C24.2419 12.1928 21.4538 9.56445 18.0645 9.56445C17.9265 9.56442 17.8545 9.46303 17.8545 9.38672C17.8547 9.31045 17.9267 9.20999 18.0645 9.20996ZM18.0645 6.5C23.2975 6.5 27.4997 10.5436 27.5 15.4834C27.5 15.5597 27.428 15.6611 27.29 15.6611C27.1522 15.661 27.0811 15.5597 27.0811 15.4834C27.0808 10.6963 23.0216 6.85449 18.0645 6.85449C17.9267 6.85446 17.8547 6.75401 17.8545 6.67773C17.8545 6.60143 17.9265 6.50003 18.0645 6.5Z" fill="#F3F5F7" stroke="#F3F5F7" stroke-linecap="round"/>
</svg>
