<svg width="36" height="38" viewBox="0 0 36 38" fill="none" xmlns="http://www.w3.org/2000/svg">
<path fill-rule="evenodd" clip-rule="evenodd" d="M18 37.2857C27.9411 37.2857 36 29.2268 36 19.2857C36 9.34459 27.9411 1.28571 18 1.28571C8.05888 1.28571 0 9.34459 0 19.2857C0 22.514 0.849853 25.5438 2.33804 28.1635L0 37.2857L9.40482 35.1049C11.9589 36.4956 14.8872 37.2857 18 37.2857ZM18 34.5165C26.4117 34.5165 33.2308 27.6974 33.2308 19.2857C33.2308 10.874 26.4117 4.05494 18 4.05494C9.58828 4.05494 2.76923 10.874 2.76923 19.2857C2.76923 22.5335 3.78579 25.5439 5.51808 28.016L4.15385 33.1319L9.35991 31.8304C11.8149 33.5244 14.7916 34.5165 18 34.5165Z" fill="#BFC8D0"/>
<path d="M33.4287 18C33.4287 26.521 26.5211 33.4286 18.0001 33.4286C14.75 33.4286 11.7347 32.4236 9.24781 30.7076L3.97413 32.026L5.35608 26.8437C3.60129 24.3394 2.57153 21.29 2.57153 18C2.57153 9.47904 9.47914 2.57143 18.0001 2.57143C26.5211 2.57143 33.4287 9.47904 33.4287 18Z" fill="url(#paint0_linear_128_1138)"/>
<path fill-rule="evenodd" clip-rule="evenodd" d="M18 36C27.9411 36 36 27.9411 36 18C36 8.05888 27.9411 0 18 0C8.05888 0 0 8.05888 0 18C0 21.2283 0.849853 24.2581 2.33804 26.8778L0 36L9.40482 33.8192C11.9589 35.2099 14.8872 36 18 36ZM18 33.2308C26.4117 33.2308 33.2308 26.4117 33.2308 18C33.2308 9.58828 26.4117 2.76923 18 2.76923C9.58828 2.76923 2.76923 9.58828 2.76923 18C2.76923 21.2478 3.78579 24.2582 5.51808 26.7303L4.15385 31.8462L9.35991 30.5446C11.8149 32.2387 14.7916 33.2308 18 33.2308Z" fill="#F3F5F7"/>
<path d="M13.5 9.64287C13.0721 8.78327 12.4155 8.85937 11.7523 8.85937C10.567 8.85937 8.71875 10.2792 8.71875 12.9215C8.71875 15.0871 9.67301 17.4576 12.8885 21.0037C15.9918 24.426 20.0692 26.1963 23.4543 26.1361C26.8393 26.0758 27.5357 23.1629 27.5357 22.1791C27.5357 21.7431 27.2652 21.5256 27.0788 21.4665C25.9252 20.9129 23.7977 19.8813 23.3136 19.6875C22.8295 19.4937 22.5768 19.7559 22.4197 19.8985C21.9807 20.3168 21.1105 21.5497 20.8125 21.827C20.5146 22.1044 20.0704 21.964 19.8855 21.8592C19.2053 21.5862 17.3609 20.7658 15.8907 19.3407C14.0726 17.5782 13.9659 16.9718 13.6233 16.432C13.3493 16.0002 13.5504 15.7352 13.6507 15.6194C14.0424 15.1674 14.5833 14.4696 14.8259 14.1228C15.0685 13.776 14.8759 13.2495 14.7604 12.9215C14.2634 11.5112 13.8424 10.3305 13.5 9.64287Z" fill="#F3F5F7"/>
<defs>
<linearGradient id="paint0_linear_128_1138" x1="31.5001" y1="6.42857" x2="2.57153" y2="33.4286" gradientUnits="userSpaceOnUse">
<stop stop-color="#5BD066"/>
<stop offset="1" stop-color="#27B43E"/>
</linearGradient>
</defs>
</svg>
